<svg xmlns="http://www.w3.org/2000/svg" version="1.1" xmlns:xlink="http://www.w3.org/1999/xlink" xmlns:svgjs="http://svgjs.dev/svgjs" width="1440" height="560" preserveAspectRatio="none" viewBox="0 0 1440 560"><g mask="url(&quot;#SvgjsMask1000&quot;)" fill="none"><rect width="1440" height="560" x="0" y="0" fill="#0e2a47"></rect><path d="M0 497.39L10 474.28L20 442.89L30 435.77L40 383.72L50 425.51L60 375.59L70 332.21L80 325.69L90 345.74L100 341.92L110 305.46L120 348.36L130 348.23L140 410.57L150 466.05L160 427.07L170 425.61L180 464.4L190 422.22L200 412.93L210 396.5L220 370.27L230 423.56L240 437.59L250 461.8L260 441.87L270 500.51L280 496.42L290 450.56L300 435.33L310 368.19L320 368.59L330 402.17L340 342.58L350 283.02L360 312.93L370 327.66L380 382.46L390 443.77L400 429.2L410 465.45L420 467.4L430 492.39L440 503.45L450 470.79L460 485.01L470 526.84L480 526.5L490 545.15L500 489.04L510 546.84L520 534.97L530 547.65L540 495.08L550 440.23L560 476.27L570 509.72L580 467.72L590 500.14L600 505.53L610 482.2L620 517.03L630 528.8L640 481.17L650 525.66L660 530.49L670 555.16L680 542.56L690 500.3L700 435.65L710 482.57L720 514.38L730 540.78L740 534.41L750 526.97L760 475.22L770 503.58L780 487.26L790 528.07L800 465.36L810 413.64L820 387.87L830 333.5L840 351.17L850 288.94L860 329.93L870 346.02L880 413.5L890 481.37L900 500.83L910 531.6L920 482.52L930 521.92L940 476.01L950 408.59L960 401.51L970 437.71L980 377.16L990 311.79L1000 272.59L1010 310.36L1020 268.42L1030 229.23L1040 277.08L1050 262.64L1060 298.37L1070 238.13L1080 221.33L1090 205.55L1100 137.24L1110 76.05L1120 62.27L1130 86.19L1140 134.35L1150 84.11L1160 67.04L1170 69.86L1180 108.03L1190 101.06L1200 92.39L1210 152.45L1220 204.67L1230 151.42L1240 208.25L1250 166.93L1260 206.71L1270 156.15L1280 97.11L1290 31.17L1300 3.52L1310 48.47L1320 107.67L1330 119.81L1340 150.77L1350 213.23L1360 157.97L1370 207.02L1380 264.61L1390 302.03L1400 266.13L1410 310.51L1420 298.35L1430 253.1L1440 312.39" stroke="#224b75" stroke-width="2"></path><path d="M0 497.39L10 474.28L20 442.89L30 435.77L40 383.72L50 425.51L60 375.59L70 332.21L80 325.69L90 345.74L100 341.92L110 305.46L120 348.36L130 348.23L140 410.57L150 466.05L160 427.07L170 425.61L180 464.4L190 422.22L200 412.93L210 396.5L220 370.27L230 423.56L240 437.59L250 461.8L260 441.87L270 500.51L280 496.42L290 450.56L300 435.33L310 368.19L320 368.59L330 402.17L340 342.58L350 283.02L360 312.93L370 327.66L380 382.46L390 443.77L400 429.2L410 465.45L420 467.4L430 492.39L440 503.45L450 470.79L460 485.01L470 526.84L480 526.5L490 545.15L500 489.04L510 546.84L520 534.97L530 547.65L540 495.08L550 440.23L560 476.27L570 509.72L580 467.72L590 500.14L600 505.53L610 482.2L620 517.03L630 528.8L640 481.17L650 525.66L660 530.49L670 555.16L680 542.56L690 500.3L700 435.65L710 482.57L720 514.38L730 540.78L740 534.41L750 526.97L760 475.22L770 503.58L780 487.26L790 528.07L800 465.36L810 413.64L820 387.87L830 333.5L840 351.17L850 288.94L860 329.93L870 346.02L880 413.5L890 481.37L900 500.83L910 531.6L920 482.52L930 521.92L940 476.01L950 408.59L960 401.51L970 437.71L980 377.16L990 311.79L1000 272.59L1010 310.36L1020 268.42L1030 229.23L1040 277.08L1050 262.64L1060 298.37L1070 238.13L1080 221.33L1090 205.55L1100 137.24L1110 76.05L1120 62.27L1130 86.19L1140 134.35L1150 84.11L1160 67.04L1170 69.86L1180 108.03L1190 101.06L1200 92.39L1210 152.45L1220 204.67L1230 151.42L1240 208.25L1250 166.93L1260 206.71L1270 156.15L1280 97.11L1290 31.17L1300 3.52L1310 48.47L1320 107.67L1330 119.81L1340 150.77L1350 213.23L1360 157.97L1370 207.02L1380 264.61L1390 302.03L1400 266.13L1410 310.51L1420 298.35L1430 253.1L1440 312.39L1440 560L0 560z" fill="url(&quot;#SvgjsLinearGradient1001&quot;)"></path></g><defs><mask id="SvgjsMask1000"><rect width="1440" height="560" fill="#ffffff"></rect></mask><linearGradient x1="50%" y1="0%" x2="50%" y2="100%" id="SvgjsLinearGradient1001"><stop stop-opacity="0.65" stop-color="#224b75" offset="0"></stop><stop stop-opacity="0" stop-color="#508dcc" offset="0.8"></stop></linearGradient></defs></svg>